<?xml version="1.0" standalone="no"?>
<!DOCTYPE svg PUBLIC "-//W3C//DTD SVG 20010904//EN"
 "http://www.w3.org/TR/2001/REC-SVG-20010904/DTD/svg10.dtd">
<svg version="1.0" xmlns="http://www.w3.org/2000/svg"
 width="900.000000pt" height="820.000000pt" viewBox="0 0 900.000000 820.000000"
 preserveAspectRatio="xMidYMid meet">
<metadata>
Created by potrace 1.15, written by Peter Selinger 2001-2017
</metadata>
<g transform="translate(0.000000,820.000000) scale(0.100000,-0.100000)"
fill="#000000" stroke="none">
<path d="M2137 6542 l-637 -637 0 -1553 0 -1552 1554 0 1554 0 12 33 c46 129
90 261 90 268 0 5 -611 9 -1450 9 l-1450 0 0 1230 0 1230 624 0 c490 0 625 3
629 13 2 6 3 273 1 592 -1 319 0 606 3 638 l6 57 1572 0 1572 0 7 -62 c4 -34
4 -137 0 -229 l-7 -166 79 -18 c67 -14 127 -30 227 -61 16 -5 17 20 17 420 l0
426 -1883 0 -1882 0 -638 -638z m613 -227 l0 -425 -432 1 -433 0 430 424 c237
234 431 425 433 425 1 0 2 -191 2 -425z"/>
<path d="M3512 6398 l3 -153 795 -3 795 -2 85 36 c181 78 349 124 529 145
l111 13 0 58 0 58 -1160 0 -1161 0 3 -152z"/>
<path d="M5603 6135 c-28 -14 -102 -73 -165 -131 -133 -124 -186 -153 -347
-189 -191 -42 -267 -89 -312 -189 -10 -23 -30 -104 -44 -181 -15 -77 -36 -161
-47 -187 -11 -26 -65 -100 -119 -165 -55 -65 -111 -142 -125 -171 -23 -46 -26
-61 -22 -125 4 -63 13 -90 71 -212 81 -173 89 -215 76 -377 -15 -168 -9 -245
24 -301 35 -58 75 -90 226 -173 151 -83 194 -125 281 -270 77 -129 147 -204
206 -222 57 -17 148 -15 293 5 152 21 180 16 376 -64 119 -48 150 -57 205 -57
90 -1 135 24 271 150 63 58 133 116 156 130 23 14 110 42 195 63 175 44 221
64 267 117 48 54 68 109 96 262 31 171 56 224 174 360 172 201 179 263 56 512
-76 155 -81 187 -65 374 13 159 8 223 -25 285 -24 47 -96 103 -215 166 -148
78 -203 129 -292 273 -146 235 -196 261 -445 228 -212 -28 -236 -25 -428 57
-100 42 -133 51 -195 54 -66 4 -81 1 -127 -22z m483 -496 c333 -46 631 -266
774 -571 182 -390 98 -847 -212 -1143 -192 -184 -395 -272 -653 -282 -156 -6
-245 6 -378 51 -485 166 -771 691 -646 1186 46 181 125 324 256 460 221 232
541 343 859 299z"/>
<path d="M3512 5728 l3 -153 435 -3 436 -2 61 87 c33 49 80 111 104 138 25 28
50 58 58 68 13 16 -15 17 -543 17 l-557 0 3 -152z"/>
<path d="M2260 5055 l0 -155 945 0 945 0 0 24 c0 23 51 234 65 269 7 16 -44
17 -974 17 l-981 0 0 -155z"/>
<path d="M2260 4385 l0 -155 956 0 956 0 -6 26 c-11 43 -36 217 -36 252 l0 32
-935 0 -935 0 0 -155z"/>
<path d="M2260 3715 l0 -155 1110 0 1109 0 -60 93 c-32 50 -74 120 -92 154
l-32 63 -1017 0 -1018 0 0 -155z"/>
<path d="M6940 3247 c-73 -19 -139 -42 -158 -55 -17 -13 -32 -25 -32 -26 0 -1
-36 -254 -80 -561 -44 -307 -79 -560 -76 -562 2 -3 171 -54 376 -114 353 -105
373 -109 396 -94 16 10 24 25 24 43 0 15 -67 335 -148 712 -110 510 -152 685
-163 687 -8 1 -70 -13 -139 -30z"/>
<path d="M5019 3150 c-11 -40 -274 -1910 -271 -1923 10 -40 45 -41 128 -4 542
243 575 257 617 257 23 0 57 -8 74 -17 18 -10 149 -118 293 -240 270 -231 296
-247 321 -202 9 17 278 1847 279 1897 0 8 -12 4 -33 -12 -59 -45 -146 -79
-216 -83 -80 -6 -155 12 -302 73 -140 57 -174 64 -262 53 -265 -34 -329 -32
-425 14 -47 21 -139 105 -180 162 -12 17 -22 28 -23 25z"/>
</g>
</svg>
